<svg xmlns="http://www.w3.org/2000/svg" xmlns:xlink="http://www.w3.org/1999/xlink" width="480" zoomAndPan="magnify" viewBox="0 0 360 72" height="96" preserveAspectRatio="xMidYMid meet" version="1.0"><defs><g/><clipPath id="6fbe0e075d"><path d="M 327 31 L 350 31 L 350 55 L 327 55 Z M 327 31 " clip-rule="nonzero"/></clipPath><clipPath id="f66bf37719"><path d="M 328.265625 30.242188 L 350.621094 33.382812 L 347.628906 54.667969 L 325.273438 51.527344 Z M 328.265625 30.242188 " clip-rule="nonzero"/></clipPath><clipPath id="08e066f679"><path d="M 328.265625 30.242188 L 350.621094 33.382812 L 347.628906 54.667969 L 325.273438 51.527344 Z M 328.265625 30.242188 " clip-rule="nonzero"/></clipPath><clipPath id="e59826bcfc"><path d="M 327 31 L 350 31 L 350 54 L 327 54 Z M 327 31 " clip-rule="nonzero"/></clipPath><clipPath id="237139235b"><path d="M 328.265625 30.242188 L 350.621094 33.382812 L 347.628906 54.667969 L 325.273438 51.527344 Z M 328.265625 30.242188 " clip-rule="nonzero"/></clipPath><clipPath id="bc9d67ca5a"><path d="M 328.265625 30.242188 L 350.621094 33.382812 L 347.628906 54.667969 L 325.273438 51.527344 Z M 328.265625 30.242188 " clip-rule="nonzero"/></clipPath><clipPath id="ca68550a47"><path d="M 10 31 L 33 31 L 33 55 L 10 55 Z M 10 31 " clip-rule="nonzero"/></clipPath><clipPath id="0eb237e404"><path d="M 9.398438 33.371094 L 31.765625 30.292969 L 34.695312 51.585938 L 12.332031 54.667969 Z M 9.398438 33.371094 " clip-rule="nonzero"/></clipPath><clipPath id="7f2312d050"><path d="M 9.398438 33.371094 L 31.765625 30.292969 L 34.695312 51.585938 L 12.332031 54.667969 Z M 9.398438 33.371094 " clip-rule="nonzero"/></clipPath><clipPath id="0df5722468"><path d="M 10 31 L 33 31 L 33 54 L 10 54 Z M 10 31 " clip-rule="nonzero"/></clipPath><clipPath id="86f328700b"><path d="M 9.398438 33.371094 L 31.765625 30.292969 L 34.695312 51.585938 L 12.332031 54.667969 Z M 9.398438 33.371094 " clip-rule="nonzero"/></clipPath><clipPath id="859d3ca0e2"><path d="M 9.398438 33.371094 L 31.765625 30.292969 L 34.695312 51.585938 L 12.332031 54.667969 Z M 9.398438 33.371094 " clip-rule="nonzero"/></clipPath></defs><path stroke-linecap="butt" transform="matrix(0.883115, -0.115519, 0.115519, 0.883115, 36.775637, 11.632664)" fill="none" stroke-linejoin="miter" d="M 2.804207 54.99873 C 2.428297 54.998213 2.101032 54.862516 1.818065 54.591068 C 1.536804 54.306574 1.393973 53.978262 1.39392 53.606701 L 1.395548 43.517446 C 1.396267 43.106176 1.536882 42.775132 1.817963 42.519964 C 2.100182 42.256099 2.427356 42.121965 2.803266 42.122482 L 27.993787 42.122285 C 28.405057 42.123004 28.737717 41.980741 28.991201 41.699847 C 29.2583 41.416311 29.389079 41.092827 29.387889 40.729963 C 29.389745 40.309996 29.25675 39.974124 28.99382 39.718567 C 28.736377 39.454882 28.404195 39.322964 27.992925 39.322246 L 12.821509 39.319317 C 10.618235 39.323046 8.65283 38.827098 6.932286 37.845657 C 5.217798 36.851739 3.864414 35.498117 2.872134 33.784789 C 1.88534 32.063332 1.394428 30.101536 1.393911 27.907529 L 1.396596 21.631267 C 1.392867 19.427993 1.888247 17.466938 2.868549 15.755091 C 3.863605 14.031905 5.217228 12.678521 6.929417 11.694938 C 8.651443 10.703796 10.618726 10.204755 12.82143 10.205376 L 44.793084 10.203133 C 45.204354 10.203852 45.536536 10.335769 45.79341 10.603804 C 46.055771 10.863709 46.188198 11.20393 46.187479 11.6152 L 46.188127 21.687059 C 46.187611 22.062969 46.056262 22.390803 45.794081 22.670559 C 45.536818 22.946535 45.205294 23.0801 44.793456 23.08373 L 19.602935 23.083927 C 19.227025 23.08341 18.90042 23.213195 18.618201 23.47706 C 18.335982 23.740926 18.194229 24.080668 18.193511 24.491937 C 18.193563 24.863498 18.336394 25.19181 18.618224 25.471956 C 18.900623 25.747752 19.227887 25.88345 19.603797 25.883966 L 34.775782 25.882546 C 36.969789 25.882029 38.925927 26.381188 40.640416 27.375106 C 42.36096 28.356546 43.714344 29.710169 44.700569 31.435974 C 45.692849 33.149302 46.188678 35.107318 46.188058 37.310023 L 46.18708 43.573238 C 46.190808 45.776512 45.690511 47.741348 44.699804 49.465103 C 43.715153 51.17638 42.36153 52.529764 40.638936 53.525256 C 38.926746 54.508838 36.969299 55.000319 34.775291 55.000836 Z M 2.804207 54.99873 " stroke="#1d5f80" stroke-width="11.269819" stroke-opacity="1" stroke-miterlimit="4"/><path stroke-linecap="butt" transform="matrix(0.887186, -0.0783434, 0.0783434, 0.887186, 80.063142, 6.076316)" fill="none" stroke-linejoin="miter" d="M 19.207686 63.392568 C 18.723249 63.39382 18.311686 63.168149 17.976595 62.724679 L 13.163183 55.505849 C 12.937564 55.168912 12.617873 54.999787 12.208479 54.998859 C 10.117955 54.889105 8.260558 54.333222 6.631917 53.330825 C 5.008418 52.320077 3.726745 50.97847 2.787286 49.301636 C 1.857721 47.612467 1.392178 45.704499 1.39541 43.573748 L 1.395525 21.633769 C 1.392209 19.427589 1.886677 17.467903 2.87019 15.753939 C 3.863213 14.032008 5.215361 12.680819 6.93139 11.696388 C 8.652559 10.703605 10.616426 10.203372 12.82222 10.204425 L 26.369876 10.207553 C 28.571687 10.203851 30.530988 10.702688 32.24418 11.694939 C 33.966882 12.679224 35.32244 14.031758 36.3061 15.756524 C 37.299654 17.468956 37.795905 19.428069 37.794852 21.633862 L 37.794738 43.573841 C 37.794571 45.969041 37.206417 48.09217 36.034644 49.943614 C 34.855292 51.781179 33.278786 53.130168 31.300759 53.990195 C 30.809753 54.215418 30.481418 54.543064 30.320124 54.973521 C 30.154846 55.399223 30.219962 55.858479 30.512261 56.337796 L 33.709723 61.164012 C 34.010374 61.64847 34.04619 62.140362 33.817172 62.639689 C 33.592138 63.14377 33.160753 63.39187 32.535354 63.393882 Z M 19.602242 42.121448 C 20.011636 42.122376 20.345612 41.980152 20.599415 41.69876 C 20.861956 41.418139 20.99613 41.095362 20.997569 40.730042 L 20.99613 24.49177 C 20.997444 24.078007 20.864343 23.740434 20.601198 23.479436 C 20.342807 23.214456 20.010906 23.083879 19.601512 23.082951 C 19.227455 23.08074 18.89862 23.214612 18.619761 23.480583 C 18.336919 23.7418 18.192464 24.081281 18.195905 24.491061 L 18.192975 40.728947 C 18.195905 41.094653 18.334917 41.415136 18.617978 41.699907 C 18.901425 41.980309 19.2278 42.123607 19.602242 42.121448 Z M 19.602242 42.121448 " stroke="#1d5f80" stroke-width="11.269819" stroke-opacity="1" stroke-miterlimit="4"/><path stroke-linecap="butt" transform="matrix(0.889518, -0.0446448, 0.0446448, 0.889518, 115.967258, 2.927229)" fill="none" stroke-linejoin="miter" d="M 12.822049 54.998924 C 10.617599 54.998068 8.65285 54.508621 6.932624 53.522042 C 5.216998 52.531302 3.862168 51.176617 2.872297 49.462586 C 1.887246 47.740015 1.392848 45.778585 1.393704 43.574134 L 1.39494 11.613431 C 1.393484 11.204956 1.546644 10.865721 1.84544 10.599666 C 2.144015 10.337992 2.4844 10.205768 2.857612 10.206934 L 16.800517 10.204099 C 17.208773 10.207024 17.540346 10.337842 17.799399 10.601155 C 18.062832 10.864688 18.195056 11.205072 18.192132 11.613328 L 18.195801 38.489011 C 18.194636 38.862223 18.33628 39.189906 18.616355 39.47184 C 18.901251 39.745232 19.228224 39.880212 19.601436 39.881377 C 20.014292 39.880141 20.346135 39.743097 20.601347 39.470464 C 20.865759 39.189509 20.996358 38.862316 20.997524 38.489104 L 20.998234 11.61364 C 20.996778 11.205165 21.145558 10.86571 21.448734 10.599875 C 21.74731 10.338201 22.078934 10.205537 22.443385 10.206263 L 36.38629 10.203429 C 36.798926 10.206573 37.13488 10.337612 37.398313 10.601144 C 37.661746 10.864677 37.79397 11.205062 37.795426 11.613537 L 37.79419 43.57424 C 37.797715 45.77891 37.299507 47.743219 36.304167 49.463006 C 35.322188 51.179072 33.967723 52.52952 32.244712 53.523332 C 30.530901 54.508823 28.574071 54.99906 26.369621 54.998205 Z M 12.822049 54.998924 " stroke="#1d5f80" stroke-width="11.269819" stroke-opacity="1" stroke-miterlimit="4"/><path stroke-linecap="butt" transform="matrix(0.890428, -0.0193261, 0.0193261, 0.890428, 151.683334, 1.270866)" fill="none" stroke-linejoin="miter" d="M 2.855735 54.998059 C 2.482831 54.998739 2.147956 54.86425 1.846821 54.590111 C 1.545876 54.307202 1.395063 53.979296 1.394383 53.606392 L 1.393304 11.614635 C 1.39348 11.202267 1.536739 10.867582 1.818886 10.601716 C 2.101034 10.33585 2.428464 10.206962 2.801368 10.206282 L 16.743047 10.206178 C 17.155415 10.206354 17.49477 10.336554 17.769787 10.601352 C 18.053573 10.866341 18.195425 11.202826 18.195249 11.615194 L 18.191944 53.606856 C 18.192624 53.97976 18.06271 54.30596 17.797721 54.589747 C 17.541693 54.864954 17.209782 54.998132 16.801799 54.99805 Z M 2.855735 54.998059 " stroke="#1d5f80" stroke-width="11.269819" stroke-opacity="1" stroke-miterlimit="4"/><path stroke-linecap="butt" transform="matrix(0.890586, 0.00962745, -0.00962745, 0.890586, 170.105033, 0.684072)" fill="none" stroke-linejoin="miter" d="M 2.801267 54.997907 C 2.428487 55.001936 2.102433 54.865104 1.818764 54.591843 C 1.534954 54.305424 1.395443 53.977971 1.395799 53.605144 L 1.393618 11.6121 C 1.393595 11.204187 1.534671 10.864928 1.81694 10.603093 C 2.099163 10.336873 2.426711 10.206134 2.803924 10.206442 L 37.072947 10.204423 C 38.823056 10.207434 40.384369 10.598469 41.761319 11.381864 C 43.14704 12.165165 44.22899 13.250008 45.011554 14.636346 C 45.798361 16.00948 46.188114 17.575511 46.189583 19.334344 L 46.190314 25.488115 C 46.190598 27.137307 45.648318 28.502877 44.563522 29.589213 C 43.487355 30.662296 42.124724 31.203366 40.475532 31.203649 L 39.984245 31.200188 C 39.611417 31.199832 39.279531 31.335005 38.997261 31.596839 C 38.715039 31.863059 38.573915 32.197933 38.573986 32.610231 C 38.573631 32.983058 38.717527 33.310464 38.996904 33.592544 C 39.280572 33.865806 39.611013 34.002591 39.98384 34.002947 L 40.47508 34.002022 C 42.124271 34.001739 43.485457 34.544066 44.563021 35.628956 C 45.644971 36.7138 46.190425 38.076384 46.190614 39.716805 L 46.191033 53.55074 C 46.190582 53.914795 46.058231 54.249574 45.79393 54.55069 C 45.538401 54.851711 45.206656 55.00004 44.794358 55.000111 L 30.798107 54.997899 C 30.425328 55.001929 30.094887 54.865144 29.811219 54.591882 C 29.531794 54.305417 29.387898 53.97801 29.388254 53.605183 L 29.390703 40.442299 C 29.390632 40.030001 29.25546 39.698115 28.99391 39.442159 C 28.736698 39.18177 28.406305 39.049371 27.994007 39.049442 L 19.603273 39.048038 C 19.230446 39.047682 18.898512 39.178469 18.616289 39.44469 C 18.333925 39.697753 18.192802 40.032626 18.192825 40.440539 L 18.194193 53.550747 C 18.193742 53.914803 18.06139 54.249582 17.79709 54.550698 C 17.541561 54.851719 17.209816 55.000048 16.801904 55.000072 Z M 19.600032 26.170316 L 27.995152 26.171672 C 28.403064 26.171649 28.739289 26.032043 28.995008 25.748565 C 29.255112 25.465039 29.387559 25.139031 29.387867 24.761819 C 29.387844 24.353906 29.257057 24.021972 28.991121 23.766064 C 28.738247 23.501242 28.403469 23.36889 27.995556 23.368913 L 19.600437 23.367557 C 19.22761 23.367202 18.900109 23.502327 18.617839 23.764161 C 18.335522 24.02161 18.194351 24.352098 18.194422 24.764396 C 18.194067 25.137223 18.333577 25.464677 18.61734 25.74671 C 18.901103 26.028742 19.227205 26.16996 19.600032 26.170316 Z M 19.600032 26.170316 " stroke="#1d5f80" stroke-width="11.269819" stroke-opacity="1" stroke-miterlimit="4"/><path stroke-linecap="butt" transform="matrix(0.889397, 0.0470064, -0.0470064, 0.889397, 213.743897, 1.260519)" fill="none" stroke-linejoin="miter" d="M 2.803888 54.99939 C 2.43068 55.001547 2.098474 54.865384 1.816029 54.590438 C 1.537501 54.306501 1.392895 53.98035 1.395118 53.606911 L 1.393726 11.614859 C 1.393866 11.202002 1.534177 10.865184 1.818808 10.599796 C 2.099291 10.339018 2.430516 10.20732 2.803724 10.205163 L 16.74406 10.206248 C 17.156918 10.206388 17.497652 10.337708 17.770643 10.599978 C 18.052625 10.866164 18.193314 11.201306 18.193174 11.614163 L 18.195937 23.134292 C 18.193945 23.512111 18.334172 23.838493 18.61708 24.122199 C 18.899756 24.401524 19.228045 24.546678 19.601253 24.544522 C 20.014111 24.544661 20.344873 24.404203 20.59792 24.122916 C 20.863874 23.836554 20.995889 23.508959 20.998112 23.13552 L 20.995349 11.615392 C 20.995489 11.202534 21.131421 10.865948 21.407292 10.601022 C 21.687544 10.335865 22.018769 10.204167 22.392208 10.20639 L 36.332545 10.207475 C 36.745171 10.203235 37.090516 10.338704 37.372266 10.60051 C 37.654248 10.866696 37.794938 11.201838 37.794798 11.614696 L 37.796027 17.205675 C 37.797081 17.807326 37.717679 18.382486 37.562663 18.939682 L 33.761925 31.706134 C 33.69007 32.008589 33.643104 32.283377 33.625177 32.525886 C 33.607019 32.764014 33.654807 33.086498 33.764393 33.497949 L 37.561985 46.26688 C 37.718628 46.82078 37.797592 47.400746 37.794267 48.002629 L 37.79619 53.606747 C 37.793967 53.980187 37.653193 54.308245 37.373867 54.590921 C 37.089699 54.865069 36.745566 55.001842 36.332709 55.001702 L 22.392373 55.000617 C 22.018933 54.998394 21.686727 54.862231 21.404514 54.591665 C 21.134745 54.307265 20.994519 53.980883 20.996742 53.607443 L 20.997433 42.069564 C 20.997573 41.656707 20.865643 41.321102 20.601412 41.058369 C 20.345709 40.790794 20.013734 40.659011 19.600876 40.658871 C 19.227668 40.661028 18.900823 40.792495 18.616192 41.057884 C 18.33594 41.323041 18.195629 41.659858 18.195258 42.068336 L 18.194567 53.606215 C 18.192344 53.979654 18.051569 54.307712 17.772244 54.590388 C 17.496835 54.864074 17.157082 55.000615 16.744224 55.000475 Z M 2.803888 54.99939 " stroke="#1d5f80" stroke-width="11.269819" stroke-opacity="1" stroke-miterlimit="4"/><path stroke-linecap="butt" transform="matrix(0.887083, 0.079497, -0.079497, 0.887083, 249.692039, 3.203678)" fill="none" stroke-linejoin="miter" d="M 2.801188 54.998776 C 2.427134 55.001473 2.102102 54.863269 1.817746 54.589315 C 1.536976 54.306233 1.393254 53.980045 1.394925 53.6056 L 1.392391 11.614267 C 1.395299 11.204483 1.545434 10.865171 1.843187 10.6007 C 2.145308 10.335837 2.481407 10.204437 2.855853 10.206109 L 16.801738 10.206919 C 17.211131 10.205459 17.540923 10.347639 17.79946 10.62831 C 18.062757 10.912958 18.194939 11.257794 18.192031 11.667578 L 18.195754 38.488825 C 18.193691 38.858902 18.346542 39.188675 18.644786 39.470191 C 18.947007 39.746947 19.284753 39.879608 19.65483 39.881671 L 33.600715 39.882482 C 34.010108 39.881021 34.343485 40.014074 34.596088 40.277663 C 34.861013 40.53134 34.992413 40.867439 34.993873 41.276832 L 34.993547 53.606598 C 34.991875 53.981043 34.862408 54.305292 34.597191 54.588865 C 34.344297 54.862527 34.008589 54.998295 33.599197 54.999756 Z M 2.801188 54.998776 " stroke="#1d5f80" stroke-width="11.269819" stroke-opacity="1" stroke-miterlimit="4"/><path stroke-linecap="butt" transform="matrix(0.883118, 0.115495, -0.115495, 0.883118, 283.198407, 6.128305)" fill="none" stroke-linejoin="miter" d="M 2.859274 55.0014 C 2.483364 55.001906 2.146927 54.864552 1.845614 54.589907 C 1.543163 54.306565 1.394428 53.981003 1.393922 53.605093 L 1.396078 11.614906 C 1.395371 11.203636 1.537073 10.86663 1.816268 10.600108 C 2.10038 10.337366 2.428217 10.206026 2.804127 10.20552 L 44.851418 10.204631 C 45.258339 10.204493 45.594207 10.337498 45.845408 10.601003 C 46.110224 10.867151 46.242701 11.203686 46.243409 11.614955 L 46.245138 22.24822 C 46.245075 22.619782 46.111501 22.951301 45.847628 23.233513 C 45.591316 23.505889 45.259699 23.642146 44.848429 23.642854 L 19.600237 23.640671 C 19.228676 23.640608 18.901408 23.776297 18.617295 24.039039 C 18.333183 24.301781 18.19583 24.638218 18.192188 25.050057 C 18.192694 25.425967 18.337081 25.752097 18.617218 26.033934 C 18.900567 26.306505 19.228307 26.444996 19.599868 26.445059 L 42.552323 26.4467 C 42.963593 26.445993 43.30381 26.578429 43.576755 26.83909 C 43.862747 27.098046 44.003353 27.429094 44.00406 27.840363 L 44.002766 37.368212 C 44.002703 37.739773 43.868561 38.066943 43.604688 38.349155 C 43.348944 38.62588 43.017327 38.762138 42.606057 38.762845 L 19.600278 38.759331 C 19.228717 38.759269 18.90088 38.890608 18.617337 39.157699 C 18.333225 39.420442 18.195871 39.756879 18.192229 40.168717 C 18.192735 40.544627 18.337122 40.870758 18.61726 41.152595 C 18.900609 41.425166 19.228348 41.563657 19.599909 41.563719 L 44.794778 41.56403 C 45.206047 41.563322 45.546265 41.695758 45.819778 41.960769 C 46.100852 42.215944 46.245808 42.546424 46.242166 42.958262 L 46.245601 53.604574 C 46.241758 53.981053 46.111965 54.307655 45.848092 54.589866 C 45.591779 54.862242 45.260162 54.9985 44.848893 54.999207 Z M 2.859274 55.0014 " stroke="#1d5f80" stroke-width="11.269819" stroke-opacity="1" stroke-miterlimit="4"/><g fill="#ffffff" fill-opacity="1"><g transform="translate(43.12918, 60.203967)"><g><path d="M 2.484375 -0.328125 C 2.148438 -0.285156 1.84375 -0.367188 1.5625 -0.578125 C 1.28125 -0.796875 1.117188 -1.066406 1.078125 -1.390625 L -0.09375 -10.28125 C -0.132812 -10.644531 -0.046875 -10.960938 0.171875 -11.234375 C 0.390625 -11.503906 0.664062 -11.660156 1 -11.703125 L 23.234375 -14.609375 C 23.597656 -14.660156 23.878906 -14.820312 24.078125 -15.09375 C 24.273438 -15.363281 24.347656 -15.664062 24.296875 -16 C 24.253906 -16.363281 24.101562 -16.644531 23.84375 -16.84375 C 23.582031 -17.039062 23.269531 -17.113281 22.90625 -17.0625 L 9.515625 -15.3125 C 7.554688 -15.050781 5.765625 -15.257812 4.140625 -15.9375 C 2.515625 -16.625 1.164062 -17.664062 0.09375 -19.0625 C -0.976562 -20.46875 -1.640625 -22.140625 -1.890625 -24.078125 L -2.625 -29.625 C -2.875 -31.5625 -2.660156 -33.347656 -1.984375 -34.984375 C -1.304688 -36.617188 -0.269531 -37.96875 1.125 -39.03125 C 2.519531 -40.101562 4.195312 -40.769531 6.15625 -41.03125 L 34.375 -44.71875 C 34.738281 -44.769531 35.050781 -44.691406 35.3125 -44.484375 C 35.582031 -44.285156 35.738281 -44.003906 35.78125 -43.640625 L 36.953125 -34.75 C 36.992188 -34.414062 36.910156 -34.113281 36.703125 -33.84375 C 36.503906 -33.570312 36.222656 -33.410156 35.859375 -33.359375 L 13.625 -30.453125 C 13.289062 -30.410156 13.015625 -30.253906 12.796875 -29.984375 C 12.578125 -29.710938 12.488281 -29.394531 12.53125 -29.03125 C 12.582031 -28.707031 12.75 -28.4375 13.03125 -28.21875 C 13.3125 -28.007812 13.617188 -27.925781 13.953125 -27.96875 L 27.34375 -29.71875 C 29.289062 -29.96875 31.078125 -29.753906 32.703125 -29.078125 C 34.328125 -28.398438 35.675781 -27.363281 36.75 -25.96875 C 37.832031 -24.570312 38.5 -22.894531 38.75 -20.9375 L 39.484375 -15.40625 C 39.734375 -13.46875 39.515625 -11.679688 38.828125 -10.046875 C 38.148438 -8.421875 37.113281 -7.070312 35.71875 -6 C 34.320312 -4.925781 32.648438 -4.265625 30.703125 -4.015625 Z M 2.484375 -0.328125 "/></g></g></g><g fill="#ffffff" fill-opacity="1"><g transform="translate(84.372027, 54.871528)"><g><path d="M 17.703125 5.953125 C 17.265625 5.984375 16.878906 5.8125 16.546875 5.4375 L 11.71875 -0.578125 C 11.488281 -0.859375 11.191406 -0.984375 10.828125 -0.953125 C 8.960938 -0.890625 7.269531 -1.238281 5.75 -2 C 4.226562 -2.769531 2.988281 -3.863281 2.03125 -5.28125 C 1.082031 -6.695312 0.523438 -8.347656 0.359375 -10.234375 L -1.359375 -29.71875 C -1.535156 -31.664062 -1.253906 -33.441406 -0.515625 -35.046875 C 0.222656 -36.648438 1.3125 -37.957031 2.75 -38.96875 C 4.195312 -39.976562 5.898438 -40.566406 7.859375 -40.734375 L 19.875 -41.796875 C 21.820312 -41.972656 23.597656 -41.691406 25.203125 -40.953125 C 26.804688 -40.210938 28.113281 -39.113281 29.125 -37.65625 C 30.144531 -36.207031 30.742188 -34.507812 30.921875 -32.5625 L 32.640625 -13.078125 C 32.828125 -10.960938 32.46875 -9.039062 31.5625 -7.3125 C 30.65625 -5.582031 29.363281 -4.257812 27.6875 -3.34375 C 27.269531 -3.101562 27.003906 -2.785156 26.890625 -2.390625 C 26.773438 -2.003906 26.867188 -1.601562 27.171875 -1.1875 L 30.390625 2.828125 C 30.679688 3.222656 30.75 3.65625 30.59375 4.125 C 30.4375 4.59375 30.078125 4.851562 29.515625 4.90625 Z M 16.375 -12.953125 C 16.738281 -12.984375 17.023438 -13.132812 17.234375 -13.40625 C 17.441406 -13.675781 17.53125 -13.976562 17.5 -14.3125 L 16.234375 -28.703125 C 16.203125 -29.066406 16.0625 -29.351562 15.8125 -29.5625 C 15.5625 -29.78125 15.253906 -29.875 14.890625 -29.84375 C 14.554688 -29.8125 14.273438 -29.664062 14.046875 -29.40625 C 13.816406 -29.15625 13.71875 -28.847656 13.75 -28.484375 L 15.015625 -14.09375 C 15.046875 -13.757812 15.195312 -13.476562 15.46875 -13.25 C 15.738281 -13.019531 16.039062 -12.921875 16.375 -12.953125 Z M 16.375 -12.953125 "/></g></g></g><g fill="#ffffff" fill-opacity="1"><g transform="translate(118.422725, 51.850739)"><g><path d="M 11.40625 -0.578125 C 9.4375 -0.472656 7.671875 -0.820312 6.109375 -1.625 C 4.546875 -2.425781 3.285156 -3.566406 2.328125 -5.046875 C 1.367188 -6.535156 0.835938 -8.257812 0.734375 -10.21875 L -0.6875 -38.65625 C -0.707031 -39.019531 -0.585938 -39.328125 -0.328125 -39.578125 C -0.078125 -39.828125 0.210938 -39.957031 0.546875 -39.96875 L 12.9375 -40.59375 C 13.300781 -40.613281 13.601562 -40.507812 13.84375 -40.28125 C 14.09375 -40.0625 14.226562 -39.769531 14.25 -39.40625 L 15.453125 -15.5 C 15.460938 -15.164062 15.597656 -14.878906 15.859375 -14.640625 C 16.128906 -14.410156 16.429688 -14.304688 16.765625 -14.328125 C 17.128906 -14.347656 17.414062 -14.484375 17.625 -14.734375 C 17.84375 -14.992188 17.945312 -15.289062 17.9375 -15.625 L 16.734375 -39.53125 C 16.710938 -39.894531 16.828125 -40.203125 17.078125 -40.453125 C 17.335938 -40.703125 17.632812 -40.832031 17.96875 -40.84375 L 30.359375 -41.46875 C 30.722656 -41.488281 31.023438 -41.382812 31.265625 -41.15625 C 31.515625 -40.9375 31.648438 -40.644531 31.671875 -40.28125 L 33.09375 -11.84375 C 33.195312 -9.882812 32.847656 -8.117188 32.046875 -6.546875 C 31.242188 -4.972656 30.097656 -3.707031 28.609375 -2.75 C 27.128906 -1.800781 25.410156 -1.273438 23.453125 -1.171875 Z M 11.40625 -0.578125 "/></g></g></g><g fill="#ffffff" fill-opacity="1"><g transform="translate(152.746273, 50.244419)"><g><path d="M 2.546875 -0.0625 C 2.210938 -0.0507812 1.910156 -0.164062 1.640625 -0.40625 C 1.367188 -0.65625 1.226562 -0.945312 1.21875 -1.28125 L 0.40625 -38.65625 C 0.40625 -39.019531 0.523438 -39.320312 0.765625 -39.5625 C 1.015625 -39.800781 1.304688 -39.921875 1.640625 -39.921875 L 14.046875 -40.203125 C 14.410156 -40.203125 14.71875 -40.085938 14.96875 -39.859375 C 15.226562 -39.640625 15.359375 -39.347656 15.359375 -38.984375 L 16.171875 -1.609375 C 16.179688 -1.273438 16.070312 -0.976562 15.84375 -0.71875 C 15.613281 -0.46875 15.316406 -0.335938 14.953125 -0.328125 Z M 2.546875 -0.0625 "/></g></g></g><g fill="#ffffff" fill-opacity="1"><g transform="translate(169.575523, 49.666302)"><g><path d="M 2.5 0.03125 C 2.164062 0.0195312 1.875 -0.109375 1.625 -0.359375 C 1.382812 -0.609375 1.265625 -0.898438 1.265625 -1.234375 L 1.671875 -38.625 C 1.671875 -38.988281 1.796875 -39.285156 2.046875 -39.515625 C 2.304688 -39.753906 2.601562 -39.867188 2.9375 -39.859375 L 33.4375 -39.53125 C 35 -39.519531 36.390625 -39.15625 37.609375 -38.4375 C 38.835938 -37.726562 39.796875 -36.753906 40.484375 -35.515625 C 41.171875 -34.285156 41.503906 -32.890625 41.484375 -31.328125 L 41.421875 -25.84375 C 41.410156 -24.375 40.914062 -23.160156 39.9375 -22.203125 C 38.957031 -21.253906 37.738281 -20.785156 36.28125 -20.796875 L 35.828125 -20.796875 C 35.492188 -20.804688 35.203125 -20.691406 34.953125 -20.453125 C 34.703125 -20.222656 34.578125 -19.925781 34.578125 -19.5625 C 34.566406 -19.226562 34.679688 -18.9375 34.921875 -18.6875 C 35.171875 -18.445312 35.460938 -18.320312 35.796875 -18.3125 L 36.25 -18.3125 C 37.707031 -18.300781 38.914062 -17.804688 39.875 -16.828125 C 40.832031 -15.859375 41.300781 -14.640625 41.28125 -13.171875 L 41.15625 -0.859375 C 41.15625 -0.523438 41.035156 -0.226562 40.796875 0.03125 C 40.554688 0.300781 40.253906 0.4375 39.890625 0.4375 L 27.421875 0.296875 C 27.085938 0.296875 26.796875 0.171875 26.546875 -0.078125 C 26.304688 -0.335938 26.1875 -0.632812 26.1875 -0.96875 L 26.3125 -12.6875 C 26.3125 -13.050781 26.195312 -13.347656 25.96875 -13.578125 C 25.75 -13.804688 25.453125 -13.925781 25.078125 -13.9375 L 17.609375 -14.015625 C 17.273438 -14.015625 16.976562 -13.898438 16.71875 -13.671875 C 16.46875 -13.453125 16.34375 -13.160156 16.34375 -12.796875 L 16.21875 -1.125 C 16.21875 -0.789062 16.097656 -0.488281 15.859375 -0.21875 C 15.617188 0.0390625 15.316406 0.164062 14.953125 0.15625 Z M 17.734375 -25.484375 L 25.203125 -25.40625 C 25.578125 -25.394531 25.878906 -25.515625 26.109375 -25.765625 C 26.335938 -26.015625 26.457031 -26.304688 26.46875 -26.640625 C 26.46875 -27.003906 26.351562 -27.300781 26.125 -27.53125 C 25.894531 -27.769531 25.59375 -27.894531 25.21875 -27.90625 L 17.75 -27.984375 C 17.414062 -27.984375 17.125 -27.867188 16.875 -27.640625 C 16.625 -27.410156 16.5 -27.113281 16.5 -26.75 C 16.488281 -26.414062 16.609375 -26.117188 16.859375 -25.859375 C 17.109375 -25.609375 17.398438 -25.484375 17.734375 -25.484375 Z M 17.734375 -25.484375 "/></g></g></g><g fill="#ffffff" fill-opacity="1"><g transform="translate(211.158546, 50.177336)"><g><path d="M 2.5 0.125 C 2.164062 0.113281 1.878906 -0.0195312 1.640625 -0.28125 C 1.410156 -0.550781 1.300781 -0.851562 1.3125 -1.1875 L 3.28125 -38.53125 C 3.300781 -38.882812 3.441406 -39.171875 3.703125 -39.390625 C 3.972656 -39.609375 4.273438 -39.710938 4.609375 -39.703125 L 17 -39.046875 C 17.363281 -39.023438 17.660156 -38.890625 17.890625 -38.640625 C 18.128906 -38.390625 18.238281 -38.085938 18.21875 -37.734375 L 17.6875 -27.46875 C 17.664062 -27.132812 17.769531 -26.835938 18 -26.578125 C 18.238281 -26.328125 18.523438 -26.191406 18.859375 -26.171875 C 19.222656 -26.148438 19.523438 -26.253906 19.765625 -26.484375 C 20.015625 -26.722656 20.148438 -27.007812 20.171875 -27.34375 L 20.703125 -37.609375 C 20.722656 -37.960938 20.863281 -38.25 21.125 -38.46875 C 21.382812 -38.6875 21.679688 -38.789062 22.015625 -38.78125 L 34.421875 -38.125 C 34.785156 -38.101562 35.082031 -37.96875 35.3125 -37.71875 C 35.550781 -37.46875 35.660156 -37.164062 35.640625 -36.8125 L 35.390625 -31.828125 C 35.359375 -31.296875 35.257812 -30.785156 35.09375 -30.296875 L 31.109375 -19.109375 C 31.035156 -18.859375 30.984375 -18.625 30.953125 -18.40625 C 30.921875 -18.1875 30.945312 -17.890625 31.03125 -17.515625 L 33.8125 -6 C 33.925781 -5.488281 33.96875 -4.96875 33.9375 -4.4375 L 33.671875 0.53125 C 33.660156 0.863281 33.519531 1.144531 33.25 1.375 C 32.988281 1.613281 32.675781 1.722656 32.3125 1.703125 L 19.90625 1.046875 C 19.570312 1.035156 19.289062 0.894531 19.0625 0.625 C 18.832031 0.363281 18.722656 0.0664062 18.734375 -0.265625 L 19.28125 -10.515625 C 19.300781 -10.878906 19.195312 -11.179688 18.96875 -11.421875 C 18.75 -11.671875 18.457031 -11.804688 18.09375 -11.828125 C 17.757812 -11.847656 17.460938 -11.742188 17.203125 -11.515625 C 16.953125 -11.296875 16.816406 -11.003906 16.796875 -10.640625 L 16.25 -0.390625 C 16.238281 -0.0546875 16.097656 0.222656 15.828125 0.453125 C 15.566406 0.691406 15.253906 0.800781 14.890625 0.78125 Z M 2.5 0.125 "/></g></g></g><g fill="#ffffff" fill-opacity="1"><g transform="translate(245.319704, 51.993244)"><g><path d="M 2.484375 0.21875 C 2.148438 0.1875 1.867188 0.0351562 1.640625 -0.234375 C 1.421875 -0.503906 1.328125 -0.804688 1.359375 -1.140625 L 4.703125 -38.375 C 4.734375 -38.738281 4.890625 -39.023438 5.171875 -39.234375 C 5.453125 -39.441406 5.757812 -39.53125 6.09375 -39.5 L 18.453125 -38.40625 C 18.816406 -38.363281 19.101562 -38.207031 19.3125 -37.9375 C 19.53125 -37.664062 19.617188 -37.347656 19.578125 -36.984375 L 17.453125 -13.1875 C 17.421875 -12.851562 17.523438 -12.554688 17.765625 -12.296875 C 18.015625 -12.035156 18.304688 -11.890625 18.640625 -11.859375 L 31 -10.75 C 31.363281 -10.71875 31.648438 -10.570312 31.859375 -10.3125 C 32.066406 -10.0625 32.15625 -9.753906 32.125 -9.390625 L 31.140625 1.53125 C 31.109375 1.863281 30.96875 2.144531 30.71875 2.375 C 30.46875 2.601562 30.160156 2.703125 29.796875 2.671875 Z M 2.484375 0.21875 "/></g></g></g><g fill="#ffffff" fill-opacity="1"><g transform="translate(276.84618, 54.699782)"><g><path d="M 2.53125 0.328125 C 2.195312 0.285156 1.910156 0.125 1.671875 -0.15625 C 1.441406 -0.445312 1.347656 -0.753906 1.390625 -1.078125 L 6.25 -38.15625 C 6.289062 -38.519531 6.453125 -38.796875 6.734375 -38.984375 C 7.015625 -39.179688 7.320312 -39.257812 7.65625 -39.21875 L 44.765625 -34.375 C 45.128906 -34.320312 45.410156 -34.164062 45.609375 -33.90625 C 45.816406 -33.644531 45.898438 -33.332031 45.859375 -32.96875 L 44.625 -23.578125 C 44.582031 -23.242188 44.425781 -22.96875 44.15625 -22.75 C 43.894531 -22.539062 43.582031 -22.460938 43.21875 -22.515625 L 20.9375 -25.421875 C 20.601562 -25.460938 20.296875 -25.382812 20.015625 -25.1875 C 19.734375 -24.988281 19.566406 -24.710938 19.515625 -24.359375 C 19.472656 -24.023438 19.5625 -23.710938 19.78125 -23.421875 C 20 -23.140625 20.273438 -22.976562 20.609375 -22.9375 L 40.875 -20.296875 C 41.226562 -20.242188 41.515625 -20.085938 41.734375 -19.828125 C 41.953125 -19.578125 42.039062 -19.269531 42 -18.90625 L 40.890625 -10.5 C 40.847656 -10.164062 40.691406 -9.890625 40.421875 -9.671875 C 40.160156 -9.453125 39.847656 -9.363281 39.484375 -9.40625 L 19.1875 -12.0625 C 18.851562 -12.101562 18.546875 -12.03125 18.265625 -11.84375 C 17.984375 -11.65625 17.820312 -11.378906 17.78125 -11.015625 C 17.738281 -10.679688 17.820312 -10.375 18.03125 -10.09375 C 18.25 -9.8125 18.523438 -9.648438 18.859375 -9.609375 L 41.09375 -6.703125 C 41.457031 -6.648438 41.75 -6.488281 41.96875 -6.21875 C 42.1875 -5.957031 42.273438 -5.644531 42.234375 -5.28125 L 41 4.109375 C 40.957031 4.429688 40.800781 4.703125 40.53125 4.921875 C 40.269531 5.140625 39.957031 5.222656 39.59375 5.171875 Z M 2.53125 0.328125 "/></g></g></g><g fill="#1d5f80" fill-opacity="1"><g transform="translate(133.507449, 69.132023)"><g><path d="M 1.203125 -0.0625 C 1.035156 -0.0507812 0.890625 -0.101562 0.765625 -0.21875 C 0.640625 -0.332031 0.570312 -0.472656 0.5625 -0.640625 L 0.21875 -6.625 C 0.207031 -6.800781 0.257812 -6.945312 0.375 -7.0625 C 0.488281 -7.1875 0.628906 -7.253906 0.796875 -7.265625 L 4.53125 -7.484375 C 4.945312 -7.503906 5.316406 -7.425781 5.640625 -7.25 C 5.972656 -7.082031 6.238281 -6.84375 6.4375 -6.53125 C 6.632812 -6.226562 6.75 -5.875 6.78125 -5.46875 L 6.78125 -5.3125 C 6.800781 -4.914062 6.726562 -4.550781 6.5625 -4.21875 C 6.40625 -3.894531 6.171875 -3.632812 5.859375 -3.4375 C 5.554688 -3.238281 5.195312 -3.128906 4.78125 -3.109375 L 3.015625 -3 C 2.847656 -3 2.707031 -2.929688 2.59375 -2.796875 C 2.476562 -2.671875 2.425781 -2.53125 2.4375 -2.375 L 2.53125 -0.75 C 2.539062 -0.582031 2.492188 -0.4375 2.390625 -0.3125 C 2.285156 -0.1875 2.144531 -0.117188 1.96875 -0.109375 Z M 2.90625 -4.578125 L 4.25 -4.65625 C 4.425781 -4.664062 4.566406 -4.726562 4.671875 -4.84375 C 4.773438 -4.957031 4.820312 -5.09375 4.8125 -5.25 C 4.800781 -5.414062 4.738281 -5.550781 4.625 -5.65625 C 4.507812 -5.769531 4.363281 -5.820312 4.1875 -5.8125 L 2.84375 -5.734375 C 2.675781 -5.722656 2.535156 -5.65625 2.421875 -5.53125 C 2.316406 -5.414062 2.269531 -5.273438 2.28125 -5.109375 C 2.289062 -4.953125 2.351562 -4.820312 2.46875 -4.71875 C 2.59375 -4.613281 2.738281 -4.566406 2.90625 -4.578125 Z M 2.90625 -4.578125 "/></g></g></g><g fill="#1d5f80" fill-opacity="1"><g transform="translate(141.139173, 68.702239)"><g><path d="M 1.203125 -0.0625 C 1.035156 -0.0507812 0.890625 -0.101562 0.765625 -0.21875 C 0.640625 -0.332031 0.570312 -0.472656 0.5625 -0.640625 L 0.28125 -6.640625 C 0.269531 -6.816406 0.320312 -6.960938 0.4375 -7.078125 C 0.550781 -7.191406 0.691406 -7.253906 0.859375 -7.265625 L 4.890625 -7.453125 C 5.242188 -7.460938 5.5625 -7.394531 5.84375 -7.25 C 6.132812 -7.113281 6.363281 -6.910156 6.53125 -6.640625 C 6.695312 -6.367188 6.789062 -6.054688 6.8125 -5.703125 L 6.828125 -5.15625 C 6.835938 -4.96875 6.785156 -4.8125 6.671875 -4.6875 C 6.566406 -4.570312 6.425781 -4.507812 6.25 -4.5 L 6.234375 -4.5 C 6.066406 -4.5 5.925781 -4.4375 5.8125 -4.3125 C 5.707031 -4.195312 5.660156 -4.054688 5.671875 -3.890625 C 5.679688 -3.722656 5.742188 -3.582031 5.859375 -3.46875 C 5.984375 -3.363281 6.128906 -3.3125 6.296875 -3.3125 L 6.375 -3.328125 C 6.539062 -3.328125 6.675781 -3.273438 6.78125 -3.171875 C 6.882812 -3.078125 6.941406 -2.953125 6.953125 -2.796875 L 7.03125 -0.9375 C 7.039062 -0.769531 6.992188 -0.625 6.890625 -0.5 C 6.785156 -0.375 6.644531 -0.304688 6.46875 -0.296875 L 5.703125 -0.265625 C 5.535156 -0.253906 5.390625 -0.304688 5.265625 -0.421875 C 5.148438 -0.535156 5.085938 -0.675781 5.078125 -0.84375 L 5 -2.46875 C 5 -2.632812 4.9375 -2.769531 4.8125 -2.875 C 4.6875 -2.988281 4.535156 -3.046875 4.359375 -3.046875 L 3.015625 -2.984375 C 2.847656 -2.972656 2.710938 -2.90625 2.609375 -2.78125 C 2.503906 -2.664062 2.453125 -2.523438 2.453125 -2.359375 L 2.53125 -0.734375 C 2.539062 -0.566406 2.492188 -0.421875 2.390625 -0.296875 C 2.285156 -0.171875 2.144531 -0.101562 1.96875 -0.09375 Z M 2.953125 -4.5625 L 4.296875 -4.625 C 4.472656 -4.625 4.613281 -4.679688 4.71875 -4.796875 C 4.832031 -4.910156 4.882812 -5.050781 4.875 -5.21875 C 4.863281 -5.382812 4.796875 -5.519531 4.671875 -5.625 C 4.554688 -5.738281 4.410156 -5.796875 4.234375 -5.796875 L 2.890625 -5.734375 C 2.722656 -5.722656 2.582031 -5.65625 2.46875 -5.53125 C 2.363281 -5.414062 2.316406 -5.273438 2.328125 -5.109375 C 2.335938 -4.941406 2.398438 -4.804688 2.515625 -4.703125 C 2.640625 -4.597656 2.785156 -4.550781 2.953125 -4.5625 Z M 2.953125 -4.5625 "/></g></g></g><g fill="#1d5f80" fill-opacity="1"><g transform="translate(148.784257, 68.349273)"><g><path d="M 1.203125 -0.046875 C 1.035156 -0.0351562 0.890625 -0.0859375 0.765625 -0.203125 C 0.640625 -0.328125 0.570312 -0.472656 0.5625 -0.640625 L 0.328125 -6.640625 C 0.316406 -6.816406 0.367188 -6.960938 0.484375 -7.078125 C 0.597656 -7.191406 0.738281 -7.253906 0.90625 -7.265625 L 1.671875 -7.296875 C 1.847656 -7.304688 1.992188 -7.253906 2.109375 -7.140625 C 2.222656 -7.035156 2.285156 -6.894531 2.296875 -6.71875 L 2.53125 -0.71875 C 2.539062 -0.550781 2.492188 -0.40625 2.390625 -0.28125 C 2.285156 -0.15625 2.144531 -0.0859375 1.96875 -0.078125 Z M 1.203125 -0.046875 "/></g></g></g><g fill="#1d5f80" fill-opacity="1"><g transform="translate(151.921345, 68.210548)"><g><path d="M 1.203125 -0.046875 C 1.035156 -0.0351562 0.890625 -0.0859375 0.765625 -0.203125 C 0.640625 -0.316406 0.578125 -0.457031 0.578125 -0.625 L 0.375 -6.625 C 0.363281 -6.800781 0.414062 -6.945312 0.53125 -7.0625 C 0.65625 -7.1875 0.800781 -7.253906 0.96875 -7.265625 L 4.609375 -7.375 C 4.785156 -7.382812 4.929688 -7.332031 5.046875 -7.21875 C 5.160156 -7.101562 5.222656 -6.957031 5.234375 -6.78125 L 5.375 -2.421875 C 5.382812 -2.242188 5.445312 -2.097656 5.5625 -1.984375 C 5.6875 -1.867188 5.832031 -1.816406 6 -1.828125 C 6.164062 -1.828125 6.300781 -1.882812 6.40625 -2 C 6.519531 -2.125 6.570312 -2.273438 6.5625 -2.453125 L 6.421875 -6.828125 C 6.410156 -7.003906 6.460938 -7.148438 6.578125 -7.265625 C 6.691406 -7.390625 6.832031 -7.453125 7 -7.453125 L 7.765625 -7.484375 C 7.941406 -7.492188 8.085938 -7.441406 8.203125 -7.328125 C 8.316406 -7.210938 8.378906 -7.066406 8.390625 -6.890625 L 8.59375 -0.890625 C 8.59375 -0.722656 8.535156 -0.578125 8.421875 -0.453125 C 8.316406 -0.335938 8.175781 -0.273438 8 -0.265625 L 4.359375 -0.140625 C 4.191406 -0.140625 4.046875 -0.195312 3.921875 -0.3125 C 3.796875 -0.425781 3.734375 -0.566406 3.734375 -0.734375 L 3.578125 -5.125 C 3.578125 -5.28125 3.515625 -5.410156 3.390625 -5.515625 C 3.273438 -5.628906 3.132812 -5.6875 2.96875 -5.6875 C 2.800781 -5.675781 2.660156 -5.609375 2.546875 -5.484375 C 2.441406 -5.367188 2.390625 -5.234375 2.390625 -5.078125 L 2.546875 -0.6875 C 2.546875 -0.519531 2.492188 -0.375 2.390625 -0.25 C 2.285156 -0.132812 2.144531 -0.0703125 1.96875 -0.0625 Z M 1.203125 -0.046875 "/></g></g></g><g fill="#1d5f80" fill-opacity="1"><g transform="translate(161.091518, 67.910579)"><g><path d="M 3.171875 -0.078125 C 2.785156 -0.0664062 2.585938 -0.257812 2.578125 -0.65625 L 2.46875 -5.0625 C 2.46875 -5.21875 2.40625 -5.347656 2.28125 -5.453125 C 2.164062 -5.566406 2.023438 -5.625 1.859375 -5.625 L 1.0625 -5.609375 C 0.664062 -5.597656 0.460938 -5.789062 0.453125 -6.1875 L 0.4375 -6.640625 C 0.425781 -7.035156 0.617188 -7.238281 1.015625 -7.25 L 5.78125 -7.359375 C 6.175781 -7.367188 6.378906 -7.175781 6.390625 -6.78125 L 6.40625 -6.328125 C 6.414062 -5.929688 6.222656 -5.726562 5.828125 -5.71875 L 5.03125 -5.703125 C 4.863281 -5.691406 4.722656 -5.628906 4.609375 -5.515625 C 4.492188 -5.398438 4.4375 -5.265625 4.4375 -5.109375 L 4.546875 -0.703125 C 4.554688 -0.304688 4.363281 -0.101562 3.96875 -0.09375 Z M 3.171875 -0.078125 "/></g></g></g><g fill="#1d5f80" fill-opacity="1"><g transform="translate(168.21129, 67.742137)"><g><path d="M 1.203125 -0.015625 C 1.035156 -0.015625 0.890625 -0.0703125 0.765625 -0.1875 C 0.648438 -0.3125 0.585938 -0.457031 0.578125 -0.625 L 0.578125 -1.046875 C 0.578125 -1.222656 0.632812 -1.363281 0.75 -1.46875 C 0.863281 -1.582031 1.003906 -1.640625 1.171875 -1.640625 L 4.46875 -1.6875 C 4.644531 -1.6875 4.789062 -1.742188 4.90625 -1.859375 C 5.019531 -1.984375 5.078125 -2.132812 5.078125 -2.3125 C 5.078125 -2.46875 5.015625 -2.601562 4.890625 -2.71875 C 4.773438 -2.832031 4.628906 -2.890625 4.453125 -2.890625 L 2.671875 -2.875 C 2.253906 -2.863281 1.882812 -2.945312 1.5625 -3.125 C 1.25 -3.300781 1 -3.546875 0.8125 -3.859375 C 0.625 -4.179688 0.523438 -4.546875 0.515625 -4.953125 L 0.515625 -5.109375 C 0.515625 -5.515625 0.601562 -5.875 0.78125 -6.1875 C 0.957031 -6.507812 1.203125 -6.765625 1.515625 -6.953125 C 1.828125 -7.148438 2.191406 -7.253906 2.609375 -7.265625 L 6.359375 -7.3125 C 6.535156 -7.3125 6.679688 -7.253906 6.796875 -7.140625 C 6.921875 -7.035156 6.984375 -6.894531 6.984375 -6.71875 L 6.984375 -6.296875 C 6.984375 -6.128906 6.925781 -5.984375 6.8125 -5.859375 C 6.707031 -5.734375 6.566406 -5.671875 6.390625 -5.671875 L 3.078125 -5.625 C 2.910156 -5.625 2.769531 -5.5625 2.65625 -5.4375 C 2.539062 -5.320312 2.484375 -5.179688 2.484375 -5.015625 C 2.492188 -4.847656 2.554688 -4.710938 2.671875 -4.609375 C 2.785156 -4.503906 2.925781 -4.453125 3.09375 -4.453125 L 4.890625 -4.484375 C 5.304688 -4.484375 5.671875 -4.390625 5.984375 -4.203125 C 6.304688 -4.023438 6.5625 -3.78125 6.75 -3.46875 C 6.9375 -3.15625 7.035156 -2.796875 7.046875 -2.390625 L 7.046875 -2.234375 C 7.054688 -1.816406 6.96875 -1.445312 6.78125 -1.125 C 6.601562 -0.800781 6.359375 -0.546875 6.046875 -0.359375 C 5.734375 -0.171875 5.367188 -0.078125 4.953125 -0.078125 Z M 1.203125 -0.015625 "/></g></g></g><g fill="#1d5f80" fill-opacity="1"><g transform="translate(175.863213, 67.637174)"><g/></g></g><g fill="#1d5f80" fill-opacity="1"><g transform="translate(179.294274, 67.609724)"><g><path d="M 1.046875 -3.375 C 0.910156 -3.375 0.796875 -3.414062 0.703125 -3.5 C 0.617188 -3.59375 0.578125 -3.707031 0.578125 -3.84375 L 0.578125 -5.359375 C 0.578125 -5.554688 0.609375 -5.742188 0.671875 -5.921875 L 1 -6.859375 C 1.082031 -7.097656 1.257812 -7.21875 1.53125 -7.21875 L 1.65625 -7.21875 C 1.8125 -7.21875 1.921875 -7.171875 1.984375 -7.078125 C 2.054688 -6.992188 2.066406 -6.875 2.015625 -6.71875 L 1.859375 -6.234375 C 1.804688 -6.078125 1.820312 -5.941406 1.90625 -5.828125 C 2 -5.710938 2.125 -5.65625 2.28125 -5.65625 L 2.375 -5.65625 C 2.507812 -5.65625 2.617188 -5.609375 2.703125 -5.515625 C 2.785156 -5.429688 2.828125 -5.320312 2.828125 -5.1875 L 2.828125 -3.859375 C 2.828125 -3.722656 2.785156 -3.609375 2.703125 -3.515625 C 2.617188 -3.429688 2.507812 -3.390625 2.375 -3.390625 Z M 1.046875 -3.375 "/></g></g></g><g fill="#1d5f80" fill-opacity="1"><g transform="translate(182.713365, 67.585474)"><g><path d="M 1.203125 0 C 1.035156 0 0.890625 -0.0546875 0.765625 -0.171875 C 0.648438 -0.296875 0.59375 -0.441406 0.59375 -0.609375 L 0.625 -6.609375 C 0.625 -6.785156 0.679688 -6.929688 0.796875 -7.046875 C 0.921875 -7.160156 1.066406 -7.21875 1.234375 -7.21875 L 4.875 -7.203125 C 5.050781 -7.203125 5.195312 -7.140625 5.3125 -7.015625 C 5.425781 -6.898438 5.484375 -6.753906 5.484375 -6.578125 L 5.46875 -2.21875 C 5.457031 -2.039062 5.507812 -1.894531 5.625 -1.78125 C 5.738281 -1.664062 5.878906 -1.609375 6.046875 -1.609375 C 6.210938 -1.609375 6.351562 -1.660156 6.46875 -1.765625 C 6.582031 -1.878906 6.644531 -2.023438 6.65625 -2.203125 L 6.671875 -6.578125 C 6.671875 -6.753906 6.726562 -6.898438 6.84375 -7.015625 C 6.957031 -7.128906 7.097656 -7.1875 7.265625 -7.1875 L 8.03125 -7.1875 C 8.207031 -7.1875 8.351562 -7.128906 8.46875 -7.015625 C 8.582031 -6.898438 8.640625 -6.753906 8.640625 -6.578125 L 8.609375 -0.578125 C 8.609375 -0.410156 8.550781 -0.265625 8.4375 -0.140625 C 8.320312 -0.0234375 8.175781 0.03125 8 0.03125 L 4.359375 0.015625 C 4.191406 0.015625 4.046875 -0.0390625 3.921875 -0.15625 C 3.804688 -0.28125 3.75 -0.425781 3.75 -0.59375 L 3.765625 -4.984375 C 3.765625 -5.140625 3.707031 -5.273438 3.59375 -5.390625 C 3.476562 -5.503906 3.335938 -5.5625 3.171875 -5.5625 C 3.003906 -5.5625 2.863281 -5.503906 2.75 -5.390625 C 2.632812 -5.273438 2.578125 -5.140625 2.578125 -4.984375 L 2.5625 -0.59375 C 2.5625 -0.425781 2.503906 -0.28125 2.390625 -0.15625 C 2.285156 -0.0390625 2.144531 0.0078125 1.96875 0 Z M 1.203125 0 "/></g></g></g><g fill="#1d5f80" fill-opacity="1"><g transform="translate(191.89606, 67.629942)"><g/></g></g><g fill="#1d5f80" fill-opacity="1"><g transform="translate(195.319334, 67.662413)"><g><path d="M 3.171875 0.0625 C 2.785156 0.0507812 2.597656 -0.148438 2.609375 -0.546875 L 2.6875 -4.953125 C 2.6875 -5.109375 2.625 -5.242188 2.5 -5.359375 C 2.382812 -5.472656 2.242188 -5.535156 2.078125 -5.546875 L 1.28125 -5.5625 C 0.882812 -5.5625 0.691406 -5.757812 0.703125 -6.15625 L 0.703125 -6.609375 C 0.710938 -7.003906 0.914062 -7.203125 1.3125 -7.203125 L 6.078125 -7.109375 C 6.472656 -7.109375 6.664062 -6.910156 6.65625 -6.515625 L 6.65625 -6.0625 C 6.644531 -5.664062 6.441406 -5.46875 6.046875 -5.46875 L 5.25 -5.484375 C 5.082031 -5.484375 4.941406 -5.425781 4.828125 -5.3125 C 4.710938 -5.207031 4.65625 -5.078125 4.65625 -4.921875 L 4.578125 -0.515625 C 4.566406 -0.117188 4.363281 0.0703125 3.96875 0.0625 Z M 3.171875 0.0625 "/></g></g></g><g fill="#1d5f80" fill-opacity="1"><g transform="translate(202.442807, 67.788924)"><g><path d="M 1.203125 0.03125 C 1.035156 0.03125 0.894531 -0.03125 0.78125 -0.15625 C 0.664062 -0.28125 0.609375 -0.425781 0.609375 -0.59375 L 0.765625 -6.59375 C 0.765625 -6.769531 0.828125 -6.910156 0.953125 -7.015625 C 1.078125 -7.128906 1.222656 -7.1875 1.390625 -7.1875 L 2.15625 -7.171875 C 2.332031 -7.160156 2.472656 -7.097656 2.578125 -6.984375 C 2.679688 -6.867188 2.734375 -6.722656 2.734375 -6.546875 L 2.6875 -4.9375 C 2.6875 -4.757812 2.738281 -4.613281 2.84375 -4.5 C 2.957031 -4.382812 3.097656 -4.328125 3.265625 -4.328125 C 3.429688 -4.316406 3.570312 -4.363281 3.6875 -4.46875 C 3.8125 -4.582031 3.875 -4.726562 3.875 -4.90625 L 3.921875 -6.515625 C 3.921875 -6.691406 3.984375 -6.832031 4.109375 -6.9375 C 4.234375 -7.050781 4.378906 -7.109375 4.546875 -7.109375 L 5.3125 -7.09375 C 5.476562 -7.082031 5.613281 -7.019531 5.71875 -6.90625 C 5.832031 -6.789062 5.890625 -6.644531 5.890625 -6.46875 L 5.734375 -0.46875 C 5.734375 -0.300781 5.671875 -0.15625 5.546875 -0.03125 C 5.429688 0.0820312 5.289062 0.132812 5.125 0.125 L 4.359375 0.109375 C 4.191406 0.109375 4.050781 0.046875 3.9375 -0.078125 C 3.820312 -0.203125 3.765625 -0.347656 3.765625 -0.515625 L 3.8125 -2.125 C 3.8125 -2.289062 3.753906 -2.429688 3.640625 -2.546875 C 3.535156 -2.671875 3.398438 -2.738281 3.234375 -2.75 C 3.066406 -2.75 2.921875 -2.691406 2.796875 -2.578125 C 2.679688 -2.472656 2.625 -2.335938 2.625 -2.171875 L 2.578125 -0.546875 C 2.578125 -0.378906 2.519531 -0.234375 2.40625 -0.109375 C 2.289062 0.00390625 2.144531 0.0546875 1.96875 0.046875 Z M 1.203125 0.03125 "/></g></g></g><g fill="#1d5f80" fill-opacity="1"><g transform="translate(208.743695, 67.954551)"><g><path d="M 1.203125 0.03125 C 1.035156 0.03125 0.894531 -0.03125 0.78125 -0.15625 C 0.664062 -0.28125 0.609375 -0.425781 0.609375 -0.59375 L 0.796875 -6.59375 C 0.804688 -6.769531 0.867188 -6.910156 0.984375 -7.015625 C 1.109375 -7.128906 1.253906 -7.1875 1.421875 -7.1875 L 2.1875 -7.15625 C 2.363281 -7.15625 2.503906 -7.09375 2.609375 -6.96875 C 2.722656 -6.851562 2.773438 -6.707031 2.765625 -6.53125 L 2.578125 -0.53125 C 2.578125 -0.363281 2.519531 -0.222656 2.40625 -0.109375 C 2.289062 0.00390625 2.144531 0.0625 1.96875 0.0625 Z M 1.203125 0.03125 "/></g></g></g><g fill="#1d5f80" fill-opacity="1"><g transform="translate(211.882653, 68.041377)"><g><path d="M 1.203125 0.046875 C 1.035156 0.0351562 0.894531 -0.03125 0.78125 -0.15625 C 0.664062 -0.28125 0.613281 -0.425781 0.625 -0.59375 L 0.84375 -6.59375 C 0.851562 -6.769531 0.921875 -6.910156 1.046875 -7.015625 C 1.171875 -7.128906 1.316406 -7.179688 1.484375 -7.171875 L 5.125 -7.03125 C 5.300781 -7.019531 5.441406 -6.953125 5.546875 -6.828125 C 5.660156 -6.710938 5.710938 -6.566406 5.703125 -6.390625 L 5.546875 -2.03125 C 5.535156 -1.851562 5.582031 -1.703125 5.6875 -1.578125 C 5.800781 -1.460938 5.941406 -1.398438 6.109375 -1.390625 C 6.273438 -1.378906 6.414062 -1.429688 6.53125 -1.546875 C 6.65625 -1.660156 6.722656 -1.804688 6.734375 -1.984375 L 6.890625 -6.359375 C 6.898438 -6.535156 6.960938 -6.675781 7.078125 -6.78125 C 7.203125 -6.894531 7.347656 -6.945312 7.515625 -6.9375 L 8.28125 -6.90625 C 8.457031 -6.90625 8.597656 -6.84375 8.703125 -6.71875 C 8.816406 -6.601562 8.867188 -6.457031 8.859375 -6.28125 L 8.640625 -0.28125 C 8.628906 -0.113281 8.5625 0.0234375 8.4375 0.140625 C 8.320312 0.253906 8.175781 0.3125 8 0.3125 L 4.359375 0.171875 C 4.191406 0.160156 4.050781 0.09375 3.9375 -0.03125 C 3.820312 -0.15625 3.769531 -0.300781 3.78125 -0.46875 L 3.9375 -4.859375 C 3.945312 -5.015625 3.894531 -5.148438 3.78125 -5.265625 C 3.675781 -5.390625 3.539062 -5.453125 3.375 -5.453125 C 3.207031 -5.460938 3.0625 -5.410156 2.9375 -5.296875 C 2.820312 -5.191406 2.757812 -5.0625 2.75 -4.90625 L 2.59375 -0.515625 C 2.582031 -0.347656 2.519531 -0.203125 2.40625 -0.078125 C 2.289062 0.0351562 2.144531 0.0859375 1.96875 0.078125 Z M 1.203125 0.046875 "/></g></g></g><g fill="#1d5f80" fill-opacity="1"><g transform="translate(221.052365, 68.402216)"><g><path d="M 2.796875 0.140625 C 2.367188 0.117188 1.992188 0.0078125 1.671875 -0.1875 C 1.347656 -0.394531 1.097656 -0.671875 0.921875 -1.015625 C 0.753906 -1.359375 0.679688 -1.742188 0.703125 -2.171875 L 0.828125 -4.96875 C 0.847656 -5.394531 0.957031 -5.769531 1.15625 -6.09375 C 1.363281 -6.414062 1.640625 -6.660156 1.984375 -6.828125 C 2.328125 -7.003906 2.710938 -7.082031 3.140625 -7.0625 L 5.46875 -6.953125 C 5.632812 -6.953125 5.769531 -6.890625 5.875 -6.765625 C 5.988281 -6.640625 6.039062 -6.492188 6.03125 -6.328125 L 6.015625 -5.890625 C 6.003906 -5.722656 5.9375 -5.585938 5.8125 -5.484375 C 5.695312 -5.378906 5.554688 -5.328125 5.390625 -5.328125 L 3.421875 -5.421875 C 3.253906 -5.429688 3.109375 -5.378906 2.984375 -5.265625 C 2.867188 -5.160156 2.804688 -5.023438 2.796875 -4.859375 L 2.671875 -2.109375 C 2.660156 -1.929688 2.707031 -1.78125 2.8125 -1.65625 C 2.925781 -1.539062 3.066406 -1.476562 3.234375 -1.46875 C 3.398438 -1.46875 3.539062 -1.519531 3.65625 -1.625 C 3.78125 -1.738281 3.847656 -1.882812 3.859375 -2.0625 L 3.921875 -3.53125 C 3.929688 -3.707031 4 -3.847656 4.125 -3.953125 C 4.25 -4.054688 4.394531 -4.109375 4.5625 -4.109375 L 5.328125 -4.0625 C 5.503906 -4.050781 5.644531 -3.984375 5.75 -3.859375 C 5.851562 -3.734375 5.898438 -3.585938 5.890625 -3.421875 L 5.75 -0.328125 C 5.738281 -0.148438 5.671875 -0.0078125 5.546875 0.09375 C 5.429688 0.195312 5.289062 0.25 5.125 0.25 Z M 2.796875 0.140625 "/></g></g></g><g fill="#1d5f80" fill-opacity="1"><g transform="translate(227.338968, 68.700554)"><g><path d="M 1.203125 0.0625 C 1.035156 0.0507812 0.894531 -0.015625 0.78125 -0.140625 C 0.664062 -0.265625 0.613281 -0.410156 0.625 -0.578125 L 0.65625 -1 C 0.664062 -1.175781 0.734375 -1.316406 0.859375 -1.421875 C 0.984375 -1.523438 1.128906 -1.570312 1.296875 -1.5625 L 4.59375 -1.375 C 4.769531 -1.363281 4.914062 -1.410156 5.03125 -1.515625 C 5.144531 -1.628906 5.207031 -1.773438 5.21875 -1.953125 C 5.226562 -2.109375 5.179688 -2.25 5.078125 -2.375 C 4.972656 -2.5 4.832031 -2.566406 4.65625 -2.578125 L 2.875 -2.671875 C 2.457031 -2.691406 2.09375 -2.800781 1.78125 -3 C 1.476562 -3.207031 1.242188 -3.472656 1.078125 -3.796875 C 0.921875 -4.128906 0.851562 -4.492188 0.875 -4.890625 L 0.875 -5.046875 C 0.90625 -5.453125 1.019531 -5.804688 1.21875 -6.109375 C 1.414062 -6.421875 1.675781 -6.660156 2 -6.828125 C 2.332031 -6.992188 2.707031 -7.066406 3.125 -7.046875 L 6.859375 -6.84375 C 7.035156 -6.832031 7.175781 -6.765625 7.28125 -6.640625 C 7.394531 -6.523438 7.445312 -6.378906 7.4375 -6.203125 L 7.40625 -5.78125 C 7.394531 -5.613281 7.328125 -5.472656 7.203125 -5.359375 C 7.085938 -5.242188 6.941406 -5.191406 6.765625 -5.203125 L 3.46875 -5.390625 C 3.300781 -5.398438 3.15625 -5.347656 3.03125 -5.234375 C 2.914062 -5.128906 2.851562 -4.992188 2.84375 -4.828125 C 2.832031 -4.671875 2.878906 -4.535156 2.984375 -4.421875 C 3.097656 -4.304688 3.238281 -4.242188 3.40625 -4.234375 L 5.1875 -4.125 C 5.601562 -4.101562 5.960938 -3.988281 6.265625 -3.78125 C 6.578125 -3.582031 6.8125 -3.316406 6.96875 -2.984375 C 7.132812 -2.660156 7.207031 -2.296875 7.1875 -1.890625 L 7.1875 -1.734375 C 7.15625 -1.316406 7.039062 -0.953125 6.84375 -0.640625 C 6.644531 -0.335938 6.378906 -0.101562 6.046875 0.0625 C 5.722656 0.226562 5.351562 0.300781 4.9375 0.28125 Z M 1.203125 0.0625 "/></g></g></g><g clip-path="url(#6fbe0e075d)"><g clip-path="url(#f66bf37719)"><g clip-path="url(#08e066f679)"><path fill="#1d5f80" d="M 339.453125 31.886719 L 341.910156 39.347656 L 349.453125 41.546875 L 343.117188 46.199219 L 343.359375 54.050781 L 336.980469 49.460938 L 329.582031 52.113281 L 331.972656 44.632812 L 327.171875 38.414062 L 335.023438 38.378906 Z M 339.453125 31.886719 " fill-opacity="1" fill-rule="nonzero"/></g></g></g><g clip-path="url(#e59826bcfc)"><g clip-path="url(#237139235b)"><g clip-path="url(#bc9d67ca5a)"><path fill="#1d5f80" d="M 339.40625 31.8125 L 341.871094 39.273438 L 349.410156 41.472656 L 343.078125 46.125 L 343.3125 53.976562 L 336.9375 49.386719 L 329.542969 52.039062 L 331.933594 44.558594 L 327.125 38.339844 L 334.980469 38.304688 Z M 339.40625 31.8125 " fill-opacity="1" fill-rule="nonzero"/><path fill="#1d5f80" d="M 339.40625 31.8125 L 341.871094 39.273438 L 349.410156 41.472656 L 343.078125 46.125 L 343.3125 53.976562 L 336.9375 49.386719 L 329.542969 52.039062 L 331.933594 44.558594 L 327.125 38.339844 L 334.980469 38.304688 Z M 339.40625 31.8125 " fill-opacity="1" fill-rule="nonzero"/><path fill="#1d5f80" d="M 339.40625 31.8125 L 341.871094 39.273438 L 349.410156 41.472656 L 343.078125 46.125 L 343.3125 53.976562 L 336.9375 49.386719 L 329.542969 52.039062 L 331.933594 44.558594 L 327.125 38.339844 L 334.980469 38.304688 Z M 339.40625 31.8125 " fill-opacity="1" fill-rule="nonzero"/></g></g></g><g clip-path="url(#ca68550a47)"><g clip-path="url(#0eb237e404)"><g clip-path="url(#7f2312d050)"><path fill="#1d5f80" d="M 20.609375 31.902344 L 25.011719 38.40625 L 32.867188 38.46875 L 28.042969 44.667969 L 30.417969 52.15625 L 23.03125 49.484375 L 16.636719 54.054688 L 16.894531 46.203125 L 10.578125 41.535156 L 18.125 39.355469 Z M 20.609375 31.902344 " fill-opacity="1" fill-rule="nonzero"/></g></g></g><g clip-path="url(#0df5722468)"><g clip-path="url(#86f328700b)"><g clip-path="url(#859d3ca0e2)"><path fill="#1d5f80" d="M 20.546875 31.84375 L 24.953125 38.347656 L 32.808594 38.40625 L 27.984375 44.609375 L 30.355469 52.097656 L 22.96875 49.425781 L 16.578125 53.996094 L 16.835938 46.144531 L 10.515625 41.476562 L 18.0625 39.296875 Z M 20.546875 31.84375 " fill-opacity="1" fill-rule="nonzero"/><path fill="#1d5f80" d="M 20.546875 31.84375 L 24.953125 38.347656 L 32.808594 38.40625 L 27.984375 44.609375 L 30.355469 52.097656 L 22.96875 49.425781 L 16.578125 53.996094 L 16.835938 46.144531 L 10.515625 41.476562 L 18.0625 39.296875 Z M 20.546875 31.84375 " fill-opacity="1" fill-rule="nonzero"/><path fill="#1d5f80" d="M 20.546875 31.84375 L 24.953125 38.347656 L 32.808594 38.40625 L 27.984375 44.609375 L 30.355469 52.097656 L 22.96875 49.425781 L 16.578125 53.996094 L 16.835938 46.144531 L 10.515625 41.476562 L 18.0625 39.296875 Z M 20.546875 31.84375 " fill-opacity="1" fill-rule="nonzero"/></g></g></g></svg>